# xmcd
#
# Track frame offsets:
# 150
# 20202
# 39607
# 57735
# 79157
# 92810
# 108370
# 127330
# 135767
# 151967
# 166910
# 183300
# 201917
#
# Disc length: 3131 seconds
#
#
# Revision: 0
# Processed by: cddbd v1.5.1PL0 Copyright (c) Steve Scherf et al.
# Submitted via: FreeRIP 2.80 
#
DISCID=b40c390d
DTITLE=Pepe Ahlqvist and Jarkka Rissanen - Good Act
DYEAR=1992
DGENRE=Blues
TTITLE0=Bad Bad Whiskey
TTITLE1=Outside Woman Blues
TTITLE2=Evil Stomp
TTITLE3=Sip of Tequila
TTITLE4=Good Act
TTITLE5=Linin' Track
TTITLE6=Plug Me In
TTITLE7=Don't Let That Music Die
TTITLE8=Tell Me You Love Me
TTITLE9=H2O Moan (D.T. Moan)
TTITLE10=Busy Bootin'
TTITLE11=Signals of Love
TTITLE12=Love Her With A Feeling
EXTD=
EXTT0=
EXTT1=
EXTT2=
EXTT3=
EXTT4=
EXTT5=
EXTT6=
EXTT7=
EXTT8=
EXTT9=
EXTT10=
EXTT11=
EXTT12=
PLAYORDER=
